<svg height="512" viewBox="0 0 60 60" width="512" xmlns="http://www.w3.org/2000/svg"><g id="Page-1" fill="none" fill-rule="evenodd"><g id="019---Fuse" fill-rule="nonzero" transform="translate(-1 -1)"><path id="Rectangle-path" d="m22.947 12.377h16.106v37.245h-16.106z" fill="#a4c2f7" transform="matrix(-.707 -.707 .707 -.707 31.001 74.84)"/><path id="Shape" d="m38.474 12.138-1.5 1.5 9.888 9.888-24.836 24.836 1.5 1.5 26.336-26.336z" fill="#7facfa"/><path id="Shape" d="m41.4467103 4.94323958h16.119c.5522847 0 1 .44771525 1 1v11.10000002c0 1.6568542-1.3431458 3-3 3h-12.119c-1.6568543 0-3-1.3431458-3-3v-11.10000002c0-.55228475.4477152-1 1-1z" fill="#e8edfc" transform="matrix(-.707 -.707 .707 -.707 75.678 56.333)"/><path id="Shape" d="m59.13 11.44-8.57-8.57c-.9622865-.95773819-2.4486903-1.14779757-3.621-.463.2260529.12698051.4347762.28259869.621.463l8.57 8.57c.562719.5626237.8788593 1.3257625.8788593 2.1215s-.3161403 1.5588763-.8788593 2.1215l-7.056 7.055.793.793c.3904999.3903819 1.0235001.3903819 1.414 0l7.849-7.848c.562719-.5626237.8788593-1.3257625.8788593-2.1215s-.3161403-1.5588763-.8788593-2.1215z" fill="#cad9fc"/><path id="Shape" d="m6.43499685 41.9562396h12.11899995c1.6568543 0 3 1.3431457 3 3v11.1c0 .5522847-.4477152 1-1 1h-16.11899995c-.55228475 0-1-.4477153-1-1v-11.1c0-1.6568543 1.34314575-3 3-3z" fill="#e8edfc" transform="matrix(-.707 -.707 .707 -.707 -13.677 93.347)"/><path id="Shape" d="m15.061 59.593c-.2260529-.1269805-.4347762-.2825987-.621-.463l-8.57-8.57c-.56271905-.5626237-.87885933-1.3257625-.87885933-2.1215s.31614028-1.5588763.87885933-2.1215l7.849-7.848c.3904999-.3903819 1.0235001-.3903819 1.414 0h.005l26.336-26.331v-.005c-.3903819-.3904999-.3903819-1.0235001 0-1.414l7.843-7.849c.1857435-.17968967.3941754-.33433264.62-.46-1.1733636-.67543228-2.6528565-.48743041-3.62.46l-7.848 7.849c-.3903819.3904999-.3903819 1.0235001 0 1.414v.005l-26.331 26.336h-.005c-.3904999-.3903819-1.0235001-.3903819-1.414 0l-7.849 7.843c-.56271905.5626237-.87885933 1.3257625-.87885933 2.1215s.31614028 1.5588763.87885933 2.1215l8.57 8.57c.9622865.9577382 2.4486903 1.1477976 3.621.463z" fill="#fff"/><path id="Rectangle-path" d="m10.966 34.645h8v2h-8z" fill="#fff" transform="matrix(.707 -.707 .707 .707 -20.822 21.024)"/><g fill="#428dff"><path id="Shape" d="m14.985 36.646c-.3572656.0016077-.6882503-.1875056-.8682755-.4961029-.1800251-.3085972-.1817405-.6897951-.0045-1 .1772406-.3102049.5065099-.5022894.8637755-.5038971h.009c.5522847 0 1 .4477153 1 1s-.4477153 1-1 1z"/><path id="Shape" d="m51.267 2.164c-1.5824655-1.51226493-4.0745345-1.51226493-5.657 0l-7.848 7.848c-.5124784.5015525-.7083399 1.2439062-.51 1.933l-20.165 20.165c-.3696018.3935832-.3600364 1.0094904.0216094 1.3914063s.997546.391917 1.3913906.0225937l19.974-19.972 4.28 4.28-2.14 2.14c-.1875494.1874927-.2929434.4418052-.293.707v1.251c-.0011025 1.1151582-.9048418 2.0188975-2.02 2.02h-2.501c-2.2192707.0022049-4.0177951 1.8007293-4.02 4.02v2.5c-.0011014 1.1147684-.9042323 2.0183466-2.019 2.02h-2.5c-2.2192707.0022049-4.0177951 1.8007293-4.02 4.02v2.5c-.0016522 1.1149301-.9050699 2.0183478-2.02 2.02h-1.25c-.2651948.0000566-.5195073.1054506-.707.293l-1.429 1.428-4.987-4.987c-.7809997-.7807639-2.0470003-.7807639-2.828 0l-7.857 7.846c-1.5588888 1.5634816-1.5588888 4.0935184 0 5.657l8.57 8.569c.7501514.7501901 1.7675983 1.1716458 2.8285 1.1716458s2.0783486-.4214557 2.8285-1.1716458l7.848-7.848c.5124784-.5015525.7083399-1.2439062.51-1.933l25.309-25.309c.6880914.2001015 1.4304568.0048029 1.931-.508l7.849-7.848c1.5588888-1.5634816 1.5588888-4.0935184 0-5.657zm-36.291 56.258c-.7915033.7559402-2.0374967.7559402-2.829 0l-8.57-8.569c-.37524801-.375096-.58607293-.8839266-.58607293-1.4145s.21082492-1.039404.58607293-1.4145l7.849-7.848 11.4 11.4zm8.55-9.974-4.28-4.28 1.136-1.135h.836c2.2190426-.0027549 4.0172451-1.8009574 4.02-4.02v-2.5c.0016522-1.1149301.9050699-2.0183478 2.02-2.02h2.5c2.2191085-.0022058 4.0173463-1.800891 4.019-4.02v-2.5c.0016522-1.1149301.9050699-2.0183478 2.02-2.02h2.5c2.2190426-.0027549 4.0172451-1.8009574 4.02-4.02v-.837l1.847-1.847 4.28 4.28zm34.9-33.472-7.849 7.848-11.4-11.4 7.848-7.848c.7915033-.75594024 2.0374967-.75594024 2.829 0l8.57 8.569c.3757279.3753096.5867617.8846436.5865741 1.4157074-.0001876.5310637-.2115812 1.0402485-.5875741 1.4152926z"/><path id="Shape" d="m50.569 17.125c-.3923789-.3789722-1.0160848-.3735524-1.4018186.0121814s-.3911536 1.0094397-.0121814 1.4018186l.712.712c.3923789.3789722 1.0160848.3735524 1.4018186-.0121814s.3911536-1.0094397.0121814-1.4018186z"/><path id="Shape" d="m44.163 10.719c-.3923789-.3789722-1.0160848-.3735524-1.4018186.0121814s-.3911536 1.0094397-.0121814 1.4018186l3.56 3.559c.3923789.3789722 1.0160848.3735524 1.4018186-.0121814s.3911536-1.0094397.0121814-1.4018186z"/><path id="Shape" d="m17.837 51.281c.3923789.3789722 1.0160848.3735524 1.4018186-.0121814s.3911536-1.0094397.0121814-1.4018186l-.712-.712c-.3923789-.3789722-1.0160848-.3735524-1.4018186.0121814s-.3911536 1.0094397-.0121814 1.4018186z"/><path id="Shape" d="m10.719 42.749c-.3903819.3904999-.3903819 1.0235001 0 1.414l3.558 3.559c.3923789.3789722 1.0160848.3735524 1.4018186-.0121814s.3911536-1.0094397.0121814-1.4018186l-3.558-3.559c-.3904999-.3903819-1.0235001-.3903819-1.414 0z"/></g></g></g></svg>