
<svg
   fill="#none"
   viewBox="0 0 23 23"
   height="17"
   width="23">
  
  <path
    
     id="path823"
     fill="#ffffff"
     d="M 24.584718,22.591362 H -3.3222591 V 0 H 24.584718 Z m -4.686,-5.317442 v -0.253249 l -1.450047,-1.152159 c -0.127953,-0.07907 -0.19186,-0.20897 -0.16507,-0.337854 V 7.0607382 c -0.02679,-0.1289515 0.03712,-0.2588518 0.16507,-0.3379216 L 19.933602,5.5706572 V 5.3174419 H 14.79174 L 11.126579,12.718936 6.9568153,5.3174419 H 1.563792 v 0.2532153 l 1.7372093,1.6934032 c 0.1697581,0.1252014 0.2569675,0.3078074 0.233721,0.4923111 v 6.6569175 c 0.051154,0.240033 -0.043033,0.485714 -0.2511629,0.660797 L 1.328899,16.992431 v 0.25325 h 5.5418651 v -0.25325 L 4.9161176,15.074086 C 4.7056432,14.899003 4.6068106,14.655243 4.6463408,14.413289 V 8.6562532 L 9.5103039,17.245681 H 10.07542 l 4.177855,-8.5894278 v 6.8461648 c 0,0.182539 0,0.218346 -0.147627,0.337854 l -1.502372,1.180399 v 0.253249 z"
     clip-rule="evenodd"
     fill-rule="evenodd" />
</svg>
